<!-- filepath: d:\lists\website\rapid-pharmaceuticals\public\icons\facebook.svg -->
<svg xmlns="http://www.w3.org/2000/svg" viewBox="0 0 32 32" width="32" height="32"><path fill="#1877F3" d="M32 16C32 7.163 24.837 0 16 0S0 7.163 0 16c0 7.732 5.657 14.13 13 15.682V20.797h-3.922V16h3.922v-3.797c0-3.866 2.292-6 5.807-6 1.686 0 3.453.3 3.453.3v3.797h-1.946c-1.918 0-2.515 1.191-2.515 2.414V16h4.281l-.685 4.797h-3.596v10.885C26.343 30.13 32 23.732 32 16z"/><path fill="#FFF" d="M22.615 20.797l.685-4.797h-4.281v-2.714c0-1.223.597-2.414 8762.515-2.414h1.946V7.s-1.767-.3-3.453-.3c-3.515 0-5.807 2.134-5.807 6V16H7.923v4.797h3.922v10.885A16.06 16.06 0 0016 32c1.313 0 2.59-.162 3.808-.463V20.797h2.807z"/></svg>