<!-- filepath: d:\lists\website\rapid-pharmaceuticals\public\icons\linkedin.svg -->
<svg xmlns="http://www.w3.org/2000/svg" viewBox="0 0 32 32" width="32" height="32"><path fill="#0077B5" d="M32 32H0V0h32v32z"/><path fill="#FFF" d="M9.339 27.339H4.661V12.661h4.678v14.678zM7 10.661a2.339 2.339 0 110-4.678 2.339 2.339 0 010 4.678zm20.339 16.678h-4.678v-7.339c0-1.749-.031-4-2.439-4-2.441 0-2.816 1.906-2.816 3.875v7.464h-4.678V12.661h4.489v2h.063c.625-1.188 2.156-2.438 4.438-2.438 4.75 0 5.625 3.125 5.625 7.188v7.928z"/></svg>