<!-- filepath: d:\lists\website\rapid-pharmaceuticals\public\icons\twitter.svg -->
<svg xmlns="http://www.w3.org/2000/svg" viewBox="0 0 32 32" width="32" height="32"><path fill="#1DA1F2" d="M32 6.076a13.14 13.14 0 01-3.769 1.031A6.601 6.601 0 0031.115 4.1a13.195 13.195 0 01-4.169 1.594A6.563 6.563 0 0022.155 2c-3.626 0-6.563 2.938-6.563 6.563 0 .514.058 1.016.17 1.496C10.274 9.86 5.444 7.684 2.228 4.149c-.564.97-.888 2.096-.888 3.301 0 2.277 1.159 4.287 2.924 5.463A6.548 6.548 0 01.64 11.15v.083c0 3.181 2.263 5.834 5.267 6.437-.551.15-1.132.23-1.731.23-.423 0-.834-.041-1.234-.117.835 2.606 3.26 4.504 6.134 4.557A13.18 13.18 0 010 28.13a18.616 18.616 0 0010.063 2.949c12.072 0 18.681-10.004 18.681-18.68 0-.285-.007-.568-.02-.85A13.348 13.348 0 0032 6.076z"/></svg>